# xmcd CD database file
#
# Track frame offsets:
#	150
#	20955
#	33100
#	51250
#	77650
#	95595
#	112815
#	134840
#	149225
#	164727
#	185445
#	203977
#
# Disc length: 3000 seconds
#
# Revision: 1
# Processed by: cddbd v1.5.2PL0 Copyright (c) Steve Scherf et al.
# Submitted via: CDex 1.51
#
DISCID=b60bb60c
DTITLE=Willie Mabon - Shake That Thing
DYEAR=1900
DGENRE=Blues
TTITLE0=Shake That Thing
TTITLE1=Poison Ivy
TTITLE2=Got To Have Some
TTITLE3=Riverboat
TTITLE4=Worry Blues
TTITLE5=Hungry
TTITLE6=Hey Girl
TTITLE7=I Enjoy Myself In Pau
TTITLE8=I'm Mad
TTITLE9=Lover Girl
TTITLE10=Got To Have Some (Alternate Take)
TTITLE11=Shake That Thing (Alternate Take)
EXTD=
EXTT0=
EXTT1=
EXTT2=
EXTT3=
EXTT4=
EXTT5=
EXTT6=
EXTT7=
EXTT8=
EXTT9=
EXTT10=
EXTT11=
PLAYORDER=
